<svg xmlns="http://www.w3.org/2000/svg" xmlns:xlink="http://www.w3.org/1999/xlink" width="98" height="98" viewBox="0 0 98 98">
  <defs>
    <filter id="home" x="0" y="0" width="98" height="98" filterUnits="userSpaceOnUse">
      <feOffset dx="2" dy="2" input="SourceAlpha"/>
      <feGaussianBlur stdDeviation="2" result="blur"/>
      <feFlood flood-opacity="0.188"/>
      <feComposite operator="in" in2="blur"/>
      <feComposite in="SourceGraphic"/>
    </filter>
  </defs>
  <g transform="matrix(1, 0, 0, 1, 0, 0)" filter="url(#home)">
    <path id="home-2" data-name="home" d="M43,86A43.012,43.012,0,0,1,26.263,3.379,43.011,43.011,0,0,1,59.738,82.621,42.731,42.731,0,0,1,43,86ZM32.255,33.994a9.077,9.077,0,0,0-3.55.652,6.418,6.418,0,0,0-2.128,1.482,7.772,7.772,0,0,0-1.534,2.257,10.522,10.522,0,0,0-.752,4.223,8.535,8.535,0,0,0,2.168,6.17A7.779,7.779,0,0,0,32.3,51.019a7.7,7.7,0,0,0,5.8-2.252,8.66,8.66,0,0,0,2.168-6.239,8.688,8.688,0,0,0-2.184-6.278A7.764,7.764,0,0,0,32.255,33.994Zm30.266.281V50.738H75.044V47.965h-9.2V43.484h8.266V40.71H65.846v-3.65h8.883V34.275Zm-6.645,3.511h0V50.738h3.089V34.275H53.98L51.026,45.5l-2.987-11.23H43.064V50.738h3.089V37.778l3.256,12.96h3.2ZM11.439,43.539h6.513v7.2h3.325V34.275H17.952v6.48H11.439v-6.48H8.114V50.738h3.325v-7.2Zm20.849,4.639a4.227,4.227,0,0,1-3.28-1.444A6.2,6.2,0,0,1,27.717,42.5a6.247,6.247,0,0,1,1.258-4.251,4.6,4.6,0,0,1,6.609-.017,6.217,6.217,0,0,1,1.241,4.223,6.322,6.322,0,0,1-1.274,4.3A4.188,4.188,0,0,1,32.288,48.178Z" transform="translate(4 4)" fill="rgba(255,255,255,0.6)"/>
  </g>
</svg>
